<?xml version="1.0" encoding="UTF-8"?>
<!DOCTYPE svg PUBLIC "-//W3C//DTD SVG 1.1//EN" "http://www.w3.org/Graphics/SVG/1.1/DTD/svg11.dtd">
<!-- Creator: CorelDRAW -->
<svg xmlns="http://www.w3.org/2000/svg" xml:space="preserve" width="2048px" height="2048px" style="shape-rendering:geometricPrecision; text-rendering:geometricPrecision; image-rendering:optimizeQuality; fill-rule:evenodd; clip-rule:evenodd"
viewBox="0 0 2048 2048"
 xmlns:xlink="http://www.w3.org/1999/xlink">
 <defs>
  <style type="text/css">
   <![CDATA[
    .fil2 {fill:none}
    .fil3 {fill:#33691E}
    .fil4 {fill:#689F38}
    .fil1 {fill:#7B1FA2}
    .fil0 {fill:#AB47BC}
    .fil7 {fill:#FDD835}
    .fil6 {fill:#212121;fill-rule:nonzero}
    .fil8 {fill:#26A69A;fill-rule:nonzero}
    .fil5 {fill:#E6EE9C;fill-rule:nonzero}
   ]]>
  </style>
   <clipPath id="id0">
    <path d="M1024 0c565.539,0 1024,458.461 1024,1024 0,565.539 -458.461,1024 -1024,1024 -565.539,0 -1024,-458.461 -1024,-1024 0,-565.539 458.461,-1024 1024,-1024z"/>
   </clipPath>
 </defs>
 <g id="Layer_x0020_1">
  <metadata id="CorelCorpID_0Corel-Layer"/>
  <path class="fil0" d="M1024 0c565.539,0 1024,458.461 1024,1024 0,565.539 -458.461,1024 -1024,1024 -565.539,0 -1024,-458.461 -1024,-1024 0,-565.539 458.461,-1024 1024,-1024z"/>
  <g style="clip-path:url(#id0)">
   <g id="_341218936">
    <g>
     <path id="_3332894161" class="fil1" d="M1600.08 2112.83l0 0zm-1135.88 -1135.88l0 0z"/>
     <polygon id="_333289392" class="fil1" points="1574.54,812.196 2710.42,1948.08 2711.63,1949.51 2712.75,1950.99 2713.8,1952.51 2714.76,1954.08 2715.64,1955.69 2716.44,1957.33 2717.16,1959 2717.79,1960.7 2718.35,1962.43 2718.81,1964.18 2719.2,1965.95 2719.5,1967.74 1583.62,831.853 1583.32,830.069 1582.93,828.301 1582.46,826.55 1581.91,824.822 1581.28,823.119 1580.56,821.446 1579.76,819.804 1578.88,818.197 1577.91,816.63 1576.87,815.105 1575.75,813.627 "/>
     <polygon id="_333289704" class="fil1" points="1583.62,831.853 2719.5,1967.74 2719.71,1969.53 2719.84,1971.34 2719.88,1973.15 2719.84,1974.96 2719.71,1976.77 2719.49,1978.58 2719.18,1980.38 2718.79,1982.17 2718.3,1983.95 2717.73,1985.7 2717.06,1987.44 2716.31,1989.15 2715.46,1990.83 2714.53,1992.48 2713.5,1994.1 2712.38,1995.68 1576.5,859.796 1577.62,858.218 1578.65,856.602 1579.58,854.951 1580.43,853.268 1581.18,851.558 1581.85,849.822 1582.42,848.065 1582.9,846.29 1583.3,844.502 1583.61,842.701 1583.83,840.892 1583.96,839.081 1584,837.266 1583.96,835.456 1583.83,833.65 "/>
     <polygon id="_333289272" class="fil1" points="596.814,750.735 1732.7,1886.62 1733.84,1888.2 1734.95,1889.77 1736.02,1891.32 1737.04,1892.86 1738.02,1894.39 1738.96,1895.91 1739.86,1897.42 1740.72,1898.92 1741.53,1900.42 1742.31,1901.92 1743.04,1903.42 1743.73,1904.91 1744.39,1906.41 1745,1907.91 1745.57,1909.41 1746.1,1910.92 610.221,775.039 609.689,773.529 609.119,772.026 608.507,770.527 607.854,769.031 607.16,767.535 606.427,766.039 605.651,764.541 604.835,763.041 603.978,761.535 603.08,760.023 602.139,758.503 601.158,756.974 600.135,755.435 599.07,753.883 597.963,752.317 "/>
     <polygon id="_333289896" class="fil1" points="884.911,1047.73 2020.79,2183.62 1730.04,2149.21 594.155,1013.33 "/>
     <polygon id="_333290136" class="fil1" points="1107.59,1467.18 2243.47,2603.07 2241.67,2603.28 2239.86,2603.41 2238.05,2603.45 2236.24,2603.41 2234.43,2603.27 2232.62,2603.06 2230.82,2602.75 2229.03,2602.35 2227.25,2601.87 2225.5,2601.29 2223.76,2600.63 2222.05,2599.88 2220.37,2599.03 2218.72,2598.1 2217.1,2597.07 2215.52,2595.95 1079.64,1460.06 1081.22,1461.19 1082.84,1462.21 1084.49,1463.15 1086.17,1464 1087.88,1464.75 1089.62,1465.41 1091.37,1465.99 1093.15,1466.47 1094.94,1466.87 1096.74,1467.17 1098.55,1467.39 1100.36,1467.52 1102.17,1467.57 1103.98,1467.53 1105.79,1467.4 "/>
     <polygon id="_333290472" class="fil1" points="594.155,1013.33 1730.04,2149.21 1729.11,2151.09 1728.13,2152.93 1727.1,2154.74 1726.02,2156.51 1724.89,2158.24 1723.71,2159.94 1722.49,2161.6 1721.22,2163.21 1719.92,2164.79 1718.58,2166.33 1717.2,2167.83 1715.78,2169.29 1714.33,2170.7 1712.85,2172.07 1711.33,2173.4 1709.79,2174.68 573.913,1038.8 575.454,1037.52 576.965,1036.19 578.448,1034.82 579.897,1033.4 581.314,1031.95 582.695,1030.45 584.039,1028.91 585.343,1027.33 586.608,1025.71 587.828,1024.06 589.004,1022.36 590.135,1020.63 591.217,1018.86 592.249,1017.05 593.229,1015.21 "/>
     <polygon id="_333290496" class="fil1" points="787.223,1240.96 1923.1,2376.85 1921.59,2375.65 1920.14,2374.38 784.263,1238.5 785.704,1239.76 "/>
     <polygon id="_333290520" class="fil1" points="584.663,736.801 1720.54,1872.68 1721.99,1874.11 1723.41,1875.57 1724.81,1877.06 1726.19,1878.58 1727.55,1880.13 1728.88,1881.72 1730.18,1883.33 1731.45,1884.96 1732.7,1886.62 596.814,750.735 595.57,749.077 594.296,747.443 592.994,745.835 591.664,744.252 590.31,742.699 588.931,741.175 587.529,739.684 586.106,738.225 "/>
     <polygon id="_333290640" class="fil1" points="1079.64,1460.06 2215.52,2595.95 1923.1,2376.85 787.223,1240.96 "/>
     <polygon id="_333289944" class="fil1" points="573.913,1038.8 1709.79,2174.68 1708.48,2175.72 1707.14,2176.74 1705.78,2177.72 1704.4,2178.67 1703,2179.59 1701.58,2180.48 1700.15,2181.34 1698.7,2182.16 1697.23,2182.95 1695.76,2183.71 1694.27,2184.43 1692.77,2185.11 1691.26,2185.76 1689.75,2186.38 1688.23,2186.96 1686.7,2187.5 1685.18,2188 1683.65,2188.47 1682.12,2188.9 1680.59,2189.28 1679.06,2189.63 1677.54,2189.94 1676.02,2190.21 1674.5,2190.44 1673,2190.62 1671.5,2190.76 1670.02,2190.86 1668.54,2190.92 1667.08,2190.93 1665.63,2190.9 1664.2,2190.83 1662.79,2190.7 526.907,1054.82 528.322,1054.94 529.752,1055.02 531.2,1055.05 532.661,1055.04 534.135,1054.98 535.621,1054.88 537.117,1054.74 538.622,1054.55 540.135,1054.33 541.654,1054.06 543.178,1053.75 544.705,1053.4 546.234,1053.01 547.765,1052.59 549.295,1052.12 550.823,1051.62 552.346,1051.07 553.867,1050.5 555.381,1049.88 556.888,1049.23 558.387,1048.54 559.875,1047.82 561.351,1047.07 562.816,1046.28 564.266,1045.45 565.701,1044.6 567.12,1043.71 568.521,1042.79 569.901,1041.84 571.261,1040.85 572.599,1039.84 "/>
     <polygon id="_333290112" class="fil1" points="526.907,1054.82 1662.79,2190.7 1662.78,2190.8 526.9,1054.92 "/>
     <polygon id="_333290256" class="fil1" points="526.9,1054.92 1662.78,2190.8 1653.04,2189.83 517.161,1053.94 "/>
     <polygon id="_333290400" class="fil1" points="517.161,1053.94 1653.04,2189.83 1651.51,2189.64 1650,2189.42 1648.5,2189.14 1647.01,2188.82 1645.53,2188.45 1644.08,2188.04 1642.63,2187.59 1641.21,2187.09 1639.8,2186.54 1638.41,2185.96 1637.03,2185.33 1635.67,2184.66 1634.33,2183.95 1633.01,2183.21 1631.7,2182.42 1630.42,2181.59 1629.16,2180.73 1627.91,2179.83 1626.69,2178.89 1625.49,2177.91 1624.31,2176.9 1623.15,2175.86 487.268,1039.97 488.426,1041.02 489.607,1042.03 490.809,1043 492.032,1043.94 493.276,1044.85 494.54,1045.71 495.824,1046.54 497.126,1047.32 498.449,1048.07 499.79,1048.78 501.148,1049.45 502.524,1050.08 503.917,1050.66 505.327,1051.2 506.754,1051.7 508.196,1052.16 509.653,1052.57 511.127,1052.94 512.614,1053.26 514.117,1053.53 515.632,1053.76 "/>
     <polygon id="_333291120" class="fil1" points="1113.72,705.258 2249.6,1841.14 2250.43,1842.07 2251.24,1843.02 2252.02,1843.98 2252.79,1844.96 2253.54,1845.96 2254.27,1846.98 2254.99,1848 2255.68,1849.04 2256.36,1850.09 2257.02,1851.16 2257.66,1852.23 2258.28,1853.31 2258.89,1854.4 2259.48,1855.49 2260.05,1856.59 1124.17,720.709 1123.59,719.61 1123,718.515 1122.4,717.427 1121.77,716.346 1121.13,715.274 1120.47,714.212 1119.8,713.16 1119.1,712.12 1118.39,711.093 1117.66,710.08 1116.91,709.081 1116.14,708.099 1115.36,707.134 1114.55,706.186 "/>
     <polygon id="_333291000" class="fil1" points="1132.4,1452.5 2268.28,2588.38 2267.08,2589.9 2265.82,2591.34 2264.5,2592.71 2263.12,2593.99 2261.69,2595.19 2260.21,2596.32 2258.69,2597.36 2257.12,2598.33 2255.52,2599.21 2253.87,2600.01 2252.2,2600.73 2250.5,2601.36 2248.77,2601.91 2247.02,2602.38 2245.25,2602.77 2243.47,2603.07 1107.59,1467.18 1109.37,1466.88 1111.14,1466.5 1112.89,1466.03 1114.62,1465.48 1116.32,1464.84 1117.99,1464.13 1119.64,1463.33 1121.24,1462.44 1122.81,1461.48 1124.33,1460.44 1125.81,1459.31 1127.24,1458.11 1128.62,1456.82 1129.94,1455.46 1131.2,1454.02 "/>
     <polygon id="_333291240" class="fil1" points="1124.17,720.709 2260.05,1856.59 2260.18,1856.87 2260.31,1857.14 2260.44,1857.41 2260.57,1857.68 2260.71,1857.95 2260.85,1858.22 2260.98,1858.49 2261.12,1858.76 1125.24,722.881 1125.1,722.612 1124.97,722.342 1124.83,722.071 1124.69,721.801 1124.56,721.529 1124.43,721.256 1124.3,720.983 "/>
     <polygon id="_333290856" class="fil1" points="1125.24,722.881 2261.12,1858.76 2261.46,1859.41 1125.58,723.526 "/>
     <polygon id="_333291096" class="fil1" points="1125.58,723.526 2261.46,1859.41 2261.49,1859.46 1125.61,723.577 "/>
     <polygon id="_333290880" class="fil1" points="1125.61,723.577 2261.49,1859.46 2262.29,1861.31 1126.41,725.423 "/>
     <polygon id="_333291360" class="fil1" points="1576.5,859.796 2712.38,1995.68 2268.28,2588.38 1132.4,1452.5 "/>
    </g>
    <path id="_341219344" class="fil1" d="M464.203 976.946l0 0zm812.311 -389.011l292.42 219.101c8.30906,6.22441 13.3134,15.2669 14.6823,24.8173 1.3689,9.5504 -0.894095,19.6347 -7.11969,27.9425l-444.094 592.706c-6.22441,8.30788 -15.2669,13.3122 -24.8173,14.6811 -9.5504,1.3689 -19.6347,-0.894095 -27.9425,-7.11851l-292.42 -219.102c-8.30906,-6.22441 -13.3134,-15.2669 -14.6811,-24.8162 -1.3689,-9.55158 0.892914,-19.6335 7.11851,-27.9425l105.25 -140.471 -290.756 -34.4032c-4.7941,10.1067 -11.9563,18.7429 -20.2417,25.4693 -13.8921,11.2772 -32.015,17.5606 -47.0067,16.0228l-0.00708662 0.0968505 -9.7382 -0.975591c-16.3819,-1.67244 -30.5445,-11.55 -40.1906,-26.204 -9.06733,-13.7788 -14.0457,-31.7835 -12.7677,-50.7933l12.4925 -194.44 0 -0.106299c0.837402,-12.5362 4.27323,-24.1583 9.58347,-34.0406 5.72953,-10.6654 13.5602,-19.252 22.6559,-24.8292 4.50237,-2.76024 9.49843,-4.83544 14.8914,-6.11457 5.23229,-1.24134 10.5059,-1.65118 15.6992,-1.12441l9.74174 0.973229c15.998,1.63465 34.4422,15.6685 47.5465,33.4713 6.23977,8.47678 10.6819,16.2366 13.4067,24.3036 38.0611,-1.33465 75.7477,-6.76064 112.572,-17.7036 37.8237,-11.2417 70.9134,-27.3532 105.773,-45.3307 20.087,-10.3583 40.4292,-20.6894 61.6264,-28.6063 71.3434,-26.6457 136.821,-14.0575 206.894,10.6441l2.04095 0.78189c5.30552,2.0315 9.84568,5.43898 13.7469,9.5256 4.57323,4.78819 8.27953,10.4799 11.2949,16.3595 0.343701,0.732284 0.699213,1.45276 1.0748,2.17205l0.340158 0.644882 0.0259843 0.0507874 0.796064 1.84606 97.3489 -129.925c6.2256,-8.30788 15.2669,-13.3122 24.8185,-14.6823 9.54922,-1.3689 19.6323,0.894095 27.9414,7.11969z"/>
   </g>
  </g>
  <path class="fil2" d="M1024 0c565.539,0 1024,458.461 1024,1024 0,565.539 -458.461,1024 -1024,1024 -565.539,0 -1024,-458.461 -1024,-1024 0,-565.539 458.461,-1024 1024,-1024z"/>
  <path class="fil3" d="M779.66 1188.2l444.094 -592.706c6.2256,-8.30788 15.2669,-13.3122 24.8185,-14.6811 9.54922,-1.37008 19.6335,0.892914 27.9414,7.11851l292.421 219.101c8.30788,6.22441 13.3122,15.2669 14.6811,24.8173 1.3689,9.5504 -0.894095,19.6347 -7.11969,27.9425l-444.094 592.706c-6.22441,8.30788 -15.2669,13.3122 -24.8173,14.6811 -9.5504,1.3689 -19.6347,-0.894095 -27.9425,-7.11851l-292.42 -219.101c-8.30906,-6.2256 -13.3134,-15.2681 -14.6811,-24.8173 -1.3689,-9.5504 0.892914,-19.6335 7.11851,-27.9425z"/>
  <path class="fil4" d="M789.703 1195.73c-4.01339,5.3563 -5.68819,12.0165 -4.73977,18.6378 0.949607,6.6189 4.42796,12.541 9.78426,16.5543l292.42 219.101c5.3563,4.01339 12.0165,5.68819 18.6378,4.73977 6.62008,-0.949607 12.541,-4.42796 16.5543,-9.78426l444.095 -592.706c4.01221,-5.3563 5.68819,-12.0165 4.73977,-18.6366 -0.949607,-6.62126 -4.42796,-12.5421 -9.78426,-16.5555l-292.421 -219.101c-5.3563,-4.01339 -12.0165,-5.68819 -18.6354,-4.73977 -6.62126,0.949607 -12.5433,4.42796 -16.5567,9.78426l-444.094 592.706z"/>
  <path class="fil3" d="M792.329 1207.67l50.1886 -66.9851c1.57205,0.552756 3.13465,1.15866 4.68426,1.8189 5.34449,2.28189 10.663,5.3504 15.8457,9.23387 16.8402,12.6177 26.9717,30.8658 29.739,50.1674 2.76614,19.298 -1.83189,39.6591 -14.4496,56.4993 -3.30945,4.41615 -6.75119,8.19095 -10.2685,11.3327l-0.484252 0.427559 -74.2749 -55.6524c-1.05709,-0.791339 -1.69725,-1.96772 -1.87795,-3.22205 -0.179528,-1.25433 0.105118,-2.56299 0.897638,-3.62008z"/>
  <path class="fil3" d="M1113.4 1448.24l50.1898 -66.9851c-0.972048,-1.35354 -1.99252,-2.68229 -3.06142,-3.98386 -3.69095,-4.48937 -8.13071,-8.73072 -13.3134,-12.6142 -16.8402,-12.6177 -37.1988,-17.2158 -56.5004,-14.4496 -19.298,2.76614 -37.5473,12.8988 -50.165,29.739 -3.30945,4.41733 -5.96693,8.77914 -7.99253,13.0382l-0.275197 0.584646 74.276 55.6524c1.05591,0.791339 2.36575,1.0748 3.62008,0.896457 1.25433,-0.180709 2.43071,-0.820867 3.22205,-1.87795z"/>
  <path class="fil3" d="M1567.07 842.759l-50.1886 66.9851c-1.57205,-0.552756 -3.13347,-1.15866 -4.68307,-1.8189 -5.34567,-2.28189 -10.663,-5.3504 -15.8469,-9.23387 -16.8402,-12.6177 -26.9717,-30.8658 -29.739,-50.1674 -2.76614,-19.298 1.83307,-39.6591 14.4508,-56.4993 3.30945,-4.41615 6.75001,-8.19095 10.2673,-11.3327l0.484252 -0.427559 74.2749 55.6512c1.05709,0.79252 1.69725,1.9689 1.87795,3.22323 0.179528,1.25433 -0.105118,2.56299 -0.897638,3.62008z"/>
  <path class="fil3" d="M1245.99 602.188l-50.1898 66.9851c0.972048,1.35354 1.99252,2.68229 3.06142,3.98268 3.69213,4.48937 8.13071,8.7319 13.3134,12.6154 16.8402,12.6177 37.1988,17.2158 56.5004,14.4496 19.298,-2.76614 37.5473,-12.8988 50.1662,-29.739 3.30945,-4.41733 5.96457,-8.78032 7.99134,-13.0382l0.275197 -0.584646 -74.2749 -55.6524c-1.05709,-0.791339 -2.36575,-1.07599 -3.62008,-0.896457 -1.25433,0.180709 -2.43189,0.820867 -3.22323,1.87795z"/>
  <path class="fil3" d="M1032.03 914.567c30.2185,-40.33 73.9241,-64.5934 120.158,-71.2205 46.2355,-6.62717 94.9973,4.38307 135.327,34.6004 40.33,30.2173 64.5934,73.9241 71.2205,120.158 6.62717,46.2343 -4.38189,94.9973 -34.6004,135.327 -30.2173,40.3288 -73.9241,64.5934 -120.158,71.2205 -46.2343,6.62717 -94.9973,-4.38307 -135.326,-34.6004 -40.33,-30.2173 -64.5945,-73.9241 -71.2217,-120.158 -6.62717,-46.2343 4.38307,-94.9973 34.6004,-135.327z"/>
  <path class="fil5" d="M1266.11 1091.74l-17.6504 -13.2236c-7.73032,8.01379 -15.0756,13.6996 -22.063,17.0929 -6.98741,3.39331 -15.1973,4.71969 -24.5374,3.99567 -9.3756,-0.748819 -18.8681,-4.20118 -28.4882,-10.415l9.9508 -20.2595c10.5071,5.72835 19.2803,8.53583 26.3433,8.39056 10.011,-0.239764 17.9599,-3.59055 23.8583,-9.99686l-56.1981 -42.1075c-6.81851,6.23977 -15.1772,11.5335 -25.1268,15.9484 -7.36418,3.26811 -14.9551,4.3252 -22.7977,3.20788 -7.84371,-1.11732 -15.2693,-4.32756 -22.3358,-9.62245 -12.5587,-9.40985 -19.4032,-21.4937 -20.5229,-36.1902 -0.791339,-9.90119 2.65158,-21.1264 10.2378,-33.6933l-8.44016 -6.32363 7.80355 -10.4161 8.44016 6.32363c8.64922,-9.51969 17.7874,-15.4335 27.3024,-17.6646 12.1937,-2.94331 24.4642,-0.964961 36.8303,5.84174l-10.9299 20.3103c-7.71142,-4.1563 -14.6669,-5.9693 -20.8358,-5.41418 -6.14292,0.522048 -11.9752,3.21142 -17.4626,8.0941l50.9056 38.1425c8.89371,-7.1941 15.052,-11.7839 18.4488,-13.735 6.52678,-3.68622 12.8362,-5.96575 18.8705,-6.83032 6.09331,-0.874016 12.2197,-0.466536 18.3555,1.25551 6.19489,1.7126 12.0543,4.63937 17.615,8.80512 12.2575,9.18426 19.5024,20.7307 21.8528,34.6229 2.38347,13.9181 -0.816142,27.261 -9.47245,40.0713l17.85 13.3748 -7.80355 10.415zm-154.628 -115.857c-4.1067,7.6441 -5.42481,15.1276 -3.93189,22.4162 1.49291,7.28977 5.27008,13.2047 11.3658,17.7721 5.99528,4.49174 12.3071,6.60709 18.8941,6.25985 6.58583,-0.346063 14.1012,-3.60473 22.5355,-9.83623l-48.8634 -36.6118zm129.845 81.0249c4.30748,-7.49174 5.56772,-15.3851 3.83859,-23.687 -1.72795,-8.30197 -6.3756,-15.2894 -13.9122,-20.9351 -6.39686,-4.79292 -12.7583,-7.05001 -19.0016,-6.8126 -6.2693,0.270473 -14.4945,3.99095 -24.678,11.1602l53.7532 40.2744z"/>
  <polygon class="fil6" points="1121.18,725.907 1121.18,725.907 1121.18,725.906 1121.18,725.906 "/>
  <path class="fil7" d="M1133.92 946.788c-0.138189,-0.0011811 -0.275197,-0.0011811 -0.411024,-0.00236221 -19.8969,-0.284646 -39.4866,-1.91811 -59.0989,-5.29725 -14.2004,-2.44488 -28.0288,-5.83701 -42.0756,-8.93741 -32.778,-7.22953 -61.9276,-12.0673 -95.6398,-14.0079l-1.02402 -0.0590552 -33.9414 0.517323 11.2984 -30.3874c0.941339,-6.01536 3.14764,-11.8394 5.98111,-17.198 10.2106,-19.3099 29.0717,-34.3866 50.6493,-38.6587 8.25473,-1.63583 16.7268,-1.50945 24.9248,0.400394 12.2374,2.85118 22.8543,8.3752 31.8508,17.2441l0.34252 0.336614 1.5815 1.34528c1.22599,0.529134 2.69055,0.296457 3.70394,-0.687402 0.324803,-0.368504 0.640158,-0.797245 0.938977,-1.18347l93.6981 -120.395c0.734646,-1.21772 0.366142,-2.93032 -0.178347,-4.13977 -0.314173,-0.696851 -0.604725,-1.40079 -0.907087,-2.10118l-0.0248032 -0.0507874c-0.114567,-0.214961 -0.230315,-0.42874 -0.34252,-0.644882 -0.37441,-0.719292 -0.729922,-1.43976 -1.07362,-2.17205 -3.01536,-5.87953 -6.72166,-11.5701 -11.2937,-16.3595 -3.90237,-4.08662 -8.44253,-7.4941 -13.748,-9.5256l-2.03977 -0.78189c-70.0725,-24.7016 -135.552,-37.2898 -206.895,-10.6441 -21.1973,7.91694 -41.5394,18.248 -61.6264,28.6063 -34.8591,17.9776 -67.9489,34.089 -105.773,45.3307 -40.2083,11.9492 -81.4465,17.3197 -123.076,17.9693 1.94528,8.65985 2.61732,17.8335 1.92047,27.9189l-13.1941 190.962c-0.429922,6.22441 -1.55433,12.2646 -3.28701,18.0791l305.159 36.1075c0.348425,-0.00236221 0.750001,-0.0437008 1.03937,-0.0720473 15.0272,-1.46575 30.5729,-2.02323 45.6615,-2.74134 23.1567,-1.10079 46.3229,-2.04685 69.4855,-2.97638 9.52442,-0.381496 19.0488,-0.758268 28.5721,-1.13386 19.5697,-0.770079 39.1288,-1.69606 58.6878,-2.67756 6.11221,-0.305906 12.2232,-0.624804 18.3366,-0.908268 3.81733,-0.178347 8.51575,-0.561024 12.2516,0.0283465l6.95079 1.09606c18.2528,-0.246851 33.1607,-7.93465 41.1827,-24.8292 2.73071,-5.75197 4.30512,-12.091 4.7067,-18.4394 0.401575,-6.33898 -0.35315,-12.815 -2.33268,-18.8551 -6.12993,-18.6992 -20.5453,-28.787 -40.1481,-30.0248l-0.793701 -0.0507874z"/>
  <path class="fil8" d="M600.114 992.316c-2.07402,19.3288 -12.6307,35.4674 -26.2004,46.4835 -13.8921,11.276 -32.015,17.5606 -47.0067,16.0228l-0.00708662 0.0968505 -9.7382 -0.975591c-16.3819,-1.67126 -30.5445,-11.55 -40.1906,-26.204 -9.06733,-13.7788 -14.0457,-31.7835 -12.7736,-50.7945l0.00590552 0.0011811 12.4925 -194.44 0 -0.106299c0.837402,-12.5362 4.27323,-24.1571 9.58347,-34.0418 5.72953,-10.6642 13.5602,-19.2508 22.6559,-24.828 4.50355,-2.76024 9.49843,-4.83544 14.8914,-6.11575 5.23229,-1.24016 10.5059,-1.65 15.6992,-1.12323l9.74174 0.973229c15.998,1.63465 34.4433,15.6685 47.5465,33.4713 12.5162,17.0032 17.8016,31.1244 16.4929,50.6185l-13.1929 190.962z"/>
 </g>
</svg>
